<?xml version="1.0" encoding="UTF-8"?>
<svg width="81px" height="82px" viewBox="0 0 81 82" version="1.1" xmlns="http://www.w3.org/2000/svg" xmlns:xlink="http://www.w3.org/1999/xlink">
    <title>more-sales</title>
    <g id="Website-Pages" stroke="none" stroke-width="1" fill="none" fill-rule="evenodd">
        <g id="Landing-Page" transform="translate(-1400.000000, -2175.000000)" fill="#505050" fill-rule="nonzero" stroke="#505050">
            <g id="Online-Menu-Boost" transform="translate(295.000000, 1205.000000)">
                <g id="More-Sales" transform="translate(961.000000, 971.000000)">
                    <g id="More-Sales" transform="translate(145.000000, 0.000000)">
                        <path d="M75.2648686,20.3636364 C75.1754407,20.3636364 75.0863291,20.3529255 74.9994052,20.3317236 C71.1492476,19.3946296 67.6307767,17.4019188 64.832725,14.5737527 C62.0295508,11.7507318 60.0544999,8.20074345 59.1258284,4.31608473 C58.979841,3.70393342 59.3533396,3.08828138 59.960061,2.94098739 C60.5667824,2.7936934 61.1769735,3.1705347 61.322961,3.782686 C62.1547306,7.25808447 63.9221186,10.4340124 66.4300234,12.9598796 C68.933707,15.490169 72.0813352,17.273696 75.5258134,18.1137879 C76.081766,18.249391 76.4495327,18.7828515 76.3821352,19.3559174 C76.3147376,19.9289833 75.8334469,20.360792 75.2614797,20.3613569 L75.2648686,20.3636364 Z" id="Path"></path>
                        <path d="M68.2158975,34.9090909 C67.9865513,34.9093781 67.7620634,34.8490406 67.5697833,34.7354284 C67.0150779,34.4111237 66.8546688,33.7395595 67.2114944,33.2354273 C67.8695516,32.3095944 68.5073057,31.3457731 69.1092309,30.3721834 C69.4324308,29.8494707 70.1606984,29.6638404 70.7358622,29.9575666 C71.311026,30.2512928 71.5152832,30.9131473 71.1920833,31.43586 C70.5662722,32.4474382 69.9022436,33.449248 69.2203005,34.4119839 C69.0002417,34.7220727 68.6219101,34.9093192 68.2158975,34.9090909 L68.2158975,34.9090909 Z" id="Path"></path>
                        <path d="M33.9207262,62.5454545 C33.7719682,62.5454545 33.6246516,62.5163786 33.4873714,62.459218 C26.1203385,59.4251046 20.4662516,53.7937267 16.682074,45.7228036 C16.5453568,45.4307958 16.5395671,45.0945656 16.6661502,44.7980458 C18.0307643,41.5838684 19.5724163,38.4473897 21.2840525,35.4029603 C21.3090756,35.3598427 21.3363736,35.3178599 21.364809,35.2781463 C24.2865368,30.0837971 27.7976994,25.2420792 31.8290212,20.8485204 C39.4218409,12.5546843 49.0508362,6.37870161 59.7661931,2.92977765 C65.6982749,0.912992858 71.9325432,-0.0763441398 78.1991305,0.00459281853 C78.7747012,0.0380901285 79.2341091,0.495902884 79.2683,1.07004998 C79.3478142,7.32150378 78.3557349,13.5405327 76.3349083,19.458547 C75.8799426,20.8825606 75.3601442,22.3145169 74.7937119,23.7112983 C74.6432045,24.0898203 74.300911,24.3588598 73.896791,24.4162695 C73.4926711,24.4736793 73.088701,24.310655 72.8382575,23.9890926 C72.5878139,23.6675301 72.5293053,23.2367448 72.6849456,22.8602942 C73.2297671,21.5157077 73.729092,20.137081 74.1692714,18.7652624 C75.9351978,13.4313894 76.8950861,7.86491594 77.017357,2.24897436 C71.388771,2.3690184 65.8095318,3.32507654 60.4634281,5.08565476 C50.1234685,8.41808339 40.8325812,14.3812016 33.5067074,22.3871359 C29.5599846,26.6861225 26.126674,31.4274802 23.2756651,36.5160737 C23.250642,36.5591912 23.2244815,36.6000394 23.1960461,36.6397529 C21.6361426,39.4236152 20.2223254,42.286472 18.960315,45.2167398 C22.4567268,52.4514095 27.3567079,57.3577319 33.917314,60.1773923 C36.8650521,58.9150522 39.7447322,57.5000822 42.544602,55.9382571 C42.5837715,55.9100574 42.624395,55.8839241 42.6663054,55.8599647 C47.7673375,53.0159479 52.5205017,49.5913199 56.8305266,45.6547233 C58.659631,43.9652712 60.3952366,42.17779 62.0296477,40.3002053 C62.4404752,39.8258221 63.1590097,39.7734971 63.6345394,40.1833341 C64.110069,40.5931712 64.1625205,41.3099733 63.7516931,41.7843565 C62.0610686,43.7252452 60.266251,45.5733101 58.3751353,47.320422 C53.9698442,51.3452735 49.1148915,54.851022 43.9060871,57.7684833 C43.8665425,57.7970573 43.8255406,57.8235685 43.7832463,57.8479103 C40.7317454,59.5552228 37.5880762,61.0931532 34.3665927,62.4546793 C34.2255615,62.5144112 34.0739415,62.5454545 33.9207262,62.5454545 L33.9207262,62.5454545 Z" id="Path"></path>
                        <path d="M41.5020364,80 C41.0967064,80 40.7215914,79.7864416 40.5157212,79.4385513 C40.3098509,79.0906609 40.3039035,78.6602511 40.5000832,78.3068455 C44.0127996,71.9963026 44.5166296,64.4532778 41.8741905,57.7345816 C41.6443075,57.147307 41.9357627,56.4855454 42.5251738,56.2564957 C43.1145849,56.027446 43.7787541,56.3178447 44.0086371,56.9051193 C46.5137785,63.2709554 46.4493534,70.3557396 43.828858,76.6753033 C45.6336595,75.7989292 47.3209605,74.7003712 48.85122,73.4053732 C56.4549339,67.0184867 59.4085098,56.6733071 56.3172028,47.2550607 C56.1592272,46.6684549 56.4901633,46.061364 57.070016,45.8740511 C57.6498686,45.6867383 58.2753554,45.9848707 58.4928726,46.5522425 C61.8718248,56.8524531 58.6401222,68.1652905 50.323805,75.1487274 C47.8318967,77.2608362 44.9630765,78.8864785 41.8673199,79.9406695 C41.7496227,79.9801697 41.6262307,80 41.5020364,80 L41.5020364,80 Z" id="Path"></path>
                        <path d="M1.12652711,38.5454545 C0.762928943,38.5454545 0.421737496,38.3652904 0.21025233,38.0620897 C-0.00123283536,37.7588889 -0.0570275999,37.3697146 0.0604146476,37.016956 C1.10157975,33.8938986 2.70733674,30.9998633 4.79368353,28.486246 C11.6902073,20.0935671 22.8659859,16.8326323 33.0400291,20.2443601 C33.4410525,20.356248 33.749455,20.6853201 33.8424613,21.1005726 C33.9354676,21.5158251 33.7979799,21.9498494 33.484732,22.2298601 C33.1714842,22.5098708 32.7333263,22.5904133 32.3446893,22.4394236 C23.0400699,19.3209833 12.820324,22.3038594 6.51343789,29.9788892 C5.23454368,31.5229788 4.14945771,33.2252871 3.28354536,35.04602 C9.52659029,32.4037991 16.5246371,32.3396314 22.8127874,34.866949 C23.1878346,35.0171892 23.4562056,35.3611315 23.5168078,35.7692163 C23.5774099,36.1773011 23.4210362,36.5875305 23.1065911,36.8453751 C22.7921461,37.1032197 22.3674013,37.1695068 21.9923541,37.0192666 C15.3556195,34.3527443 7.90438617,34.8610759 1.67085304,38.4056225 C1.50397332,38.4989499 1.31661749,38.5470657 1.12652711,38.5454545 L1.12652711,38.5454545 Z" id="Path"></path>
                        <path d="M16.2404339,79.2727273 C15.7928673,79.2727273 15.3894134,79.0005354 15.21815,78.5832834 C15.0468866,78.1660314 15.1415295,77.6857654 15.4579591,77.3663705 L25.5094953,67.2225867 C25.9437621,66.7993551 26.6340508,66.8054079 27.0609631,67.2361907 C27.4878754,67.6669736 27.4938738,68.3635207 27.0744449,68.8017247 L17.0229087,78.9455084 C16.8154004,79.1549613 16.5339392,79.2727273 16.2404339,79.2727273 L16.2404339,79.2727273 Z" id="Path"></path>
                        <path d="M1.82475701,64.7272727 C1.37818286,64.7272727 0.975623595,64.4556843 0.804739968,64.0393575 C0.63385634,63.6230307 0.728289389,63.1438295 1.04401733,62.8251428 L11.0732645,52.7038502 C11.3505259,52.4141775 11.7611082,52.2980038 12.1472038,52.3999806 C12.5332993,52.5019573 12.8348227,52.8062145 12.9358832,53.1958106 C13.0369436,53.5854068 12.9218138,53.9997116 12.6347439,54.2794868 L2.60549669,64.4007794 C2.39844858,64.6097679 2.11761148,64.7272727 1.82475701,64.7272727 Z" id="Path"></path>
                        <path d="M5.43041659,75.6363636 C4.9828904,75.6363636 4.57947293,75.3641717 4.408225,74.9469198 C4.23697707,74.5296678 4.33161144,74.0494017 4.64801247,73.7300068 L14.6997474,63.586223 C15.1339749,63.1629915 15.8242013,63.1690443 16.251075,63.5998271 C16.6779487,64.0306099 16.6839466,64.7271571 16.2645556,65.165361 L6.2128207,75.3091448 C6.00533119,75.5185977 5.72389539,75.6363636 5.43041659,75.6363636 L5.43041659,75.6363636 Z" id="Path"></path>
                        <path d="M52.9682041,35.6363636 C48.8912963,35.6360592 45.322868,32.8722651 44.267931,28.8978889 C43.212994,24.9235127 44.9345909,20.7295427 48.4653988,18.672467 C51.9962068,16.6153913 56.4558388,17.2081302 59.3385379,20.1176383 C61.9146724,22.7177309 62.6851667,26.6279558 61.2907306,30.0249317 C59.8962945,33.4219076 56.6115477,35.6366357 52.9682041,35.6363636 L52.9682041,35.6363636 Z M52.9682041,19.7835836 C49.7718431,19.7855127 47.0218942,22.065786 46.4000247,25.2299863 C45.7781551,28.3941866 47.4575518,31.5611034 50.4112188,32.7940825 C53.3648858,34.0270616 56.7702449,32.9827258 58.5448279,30.2997143 C60.319411,27.6167029 59.9690075,24.0422182 57.7078985,21.762153 C56.4530286,20.4905724 54.746453,19.7781793 52.9682041,19.7835836 Z" id="Shape"></path>
                    </g>
                </g>
            </g>
        </g>
    </g>
</svg>