<svg width="80" height="60" viewBox="0 0 80 60" fill="none" xmlns="http://www.w3.org/2000/svg">
<path d="M29.79 56.0001C29.5981 55.9913 29.4151 55.917 29.2713 55.7896C29.1276 55.6623 29.0318 55.4895 29 55.3001C28.9595 55.1085 28.9805 54.909 29.06 54.7301C29.148 54.5605 29.2883 54.4238 29.46 54.3401L31.87 53.1701L32.46 45.7901H64.71C65.0649 45.7919 65.4166 45.723 65.7445 45.5874C66.0725 45.4517 66.3701 45.2521 66.62 45.0001C67.149 44.4686 67.4472 43.75 67.45 43.0001V41.0001H11.72V43.0801C11.7228 43.83 12.021 44.5486 12.55 45.0801C12.7972 45.3301 13.0915 45.5287 13.4159 45.6643C13.7403 45.7999 14.0884 45.8698 14.44 45.8701H29.79V47.6101H14.48C13.9033 47.6134 13.3317 47.5009 12.7992 47.2794C12.2667 47.0578 11.7841 46.7316 11.38 46.3201C10.9432 45.899 10.5959 45.3942 10.3587 44.8357C10.1216 44.2773 9.9996 43.6768 10 43.0701V8.48007C10.0048 7.29069 10.4792 6.15134 11.32 5.31007C11.7199 4.89432 12.1998 4.5639 12.7309 4.33875C13.262 4.1136 13.8332 3.99839 14.41 4.00007H64.69C65.2667 3.99674 65.8383 4.10919 66.3708 4.33078C66.9033 4.55236 67.3859 4.87857 67.79 5.29007C68.6308 6.13134 69.1052 7.27069 69.11 8.46007V36.6001H67.42V8.52007C67.4227 8.149 67.3515 7.7811 67.2108 7.43775C67.07 7.09441 66.8624 6.78247 66.6 6.52007C66.3523 6.27137 66.0577 6.07435 65.7333 5.94045C65.4088 5.80655 65.061 5.73844 64.71 5.74007H14.45C14.0925 5.73422 13.7374 5.80025 13.4059 5.93424C13.0743 6.06822 12.7731 6.26744 12.52 6.52007C11.991 7.05158 11.6928 7.77017 11.69 8.52007V39.2501H68.28H69.14V43.0401C69.1352 44.2295 68.6608 45.3688 67.82 46.2101C67.4216 46.6181 66.9457 46.9424 66.4202 47.1639C65.8947 47.3855 65.3303 47.4998 64.76 47.5001H46.63L47.17 53.2601L49.51 54.3101C49.6859 54.3878 49.8279 54.5262 49.91 54.7001C49.9972 54.8767 50.0219 55.0776 49.98 55.2701C49.9425 55.4619 49.8401 55.6349 49.69 55.7601C49.5426 55.8782 49.3589 55.9418 49.17 55.9401L29.79 56.0001ZM33.43 53.5001C33.4007 53.7648 33.3081 54.0186 33.16 54.2401H45.77C45.6419 53.9931 45.5573 53.7258 45.52 53.4501L44.93 47.5301H34L33.43 53.5001Z" fill="black"/>
</svg>
